<?xml version="1.0" encoding="UTF-8"?><svg id="Layer_2" xmlns="http://www.w3.org/2000/svg" viewBox="0 0 500 200"><defs><style>.cls-1{fill:#009245;}.cls-2{letter-spacing:0em;}.cls-3{font-family:CalistoMT, 'Calisto MT';}.cls-3,.cls-4,.cls-5,.cls-6{fill:#fff;}.cls-7,.cls-5{stroke-linecap:round;stroke-linejoin:round;}.cls-7,.cls-5,.cls-6{stroke:#000;}.cls-7,.cls-6{stroke-width:2px;}.cls-8{font-family:MonotypeCorsiva, 'Monotype Corsiva';font-size:23px;}.cls-9{font-family:MyriadPro-Regular, 'Myriad Pro';font-size:17px;}.cls-10{fill:#534741;}.cls-11{fill:#c7b299;}.cls-12{fill:#bc0000;}.cls-13{font-size:30px;}.cls-14{fill:lime;}.cls-15{letter-spacing:0em;}.cls-16{fill:#1b1464;}.cls-17{fill:#f0f;}.cls-18{letter-spacing:.03em;}.cls-19{font-size:12px;}.cls-20{fill:none;stroke:#fbb03b;}.cls-20,.cls-6{stroke-miterlimit:10;}.cls-21{fill:#1a1a1a;}.cls-22{fill:#00bc00;}.cls-23{font-family:BerlinSansFBDemi-Bold, 'Berlin Sans FB Demi';font-size:15px;font-weight:700;}.cls-24{fill:red;}</style></defs><g id="Layer_1-2"><rect class="cls-4" width="500" height="200"/><rect class="cls-4" x=".5" y=".5" width="119" height="199"/><path d="m119,1v198H1V1h118M120,0H0v200h120V0h0Z"/><rect class="cls-16" x="2" y="84" width="40" height="115"/><rect class="cls-24" x="76" y="84" width="42" height="115"/><rect class="cls-21" x="190.5" y=".5" width="119" height="199"/><path d="m309,1v198h-118V1h118M310,0h-120v200h120V0h0Z"/><rect class="cls-1" x="380.5" y=".5" width="119" height="199"/><path d="m499,1v198h-118V1h118M500,0h-120v200h120V0h0Z"/><text class="cls-23" transform="translate(48.25 27.91)"><tspan x="0" y="0">The</tspan><tspan x="-43.22" y="22">French Teacher’s</tspan><tspan x="-18.16" y="44">Husband</tspan></text><circle class="cls-6" cx="96.5" cy="121.5" r="12.5"/><circle class="cls-6" cx="22.5" cy="121.5" r="12.5"/><path class="cls-6" d="m84,149.5c0-6.9,5.6-12.5,12.5-12.5s12.5,5.6,12.5,12.5"/><path class="cls-6" d="m35,149.5c0-6.9-5.6-12.5-12.5-12.5s-12.5,5.6-12.5,12.5"/><rect class="cls-4" x="11" y="151" width="23" height="47"/><path d="m33,152v45H12v-45h21m2-2H10v49h25v-49h0Z"/><rect class="cls-4" x="85" y="151" width="23" height="47"/><path d="m107,152v45h-21v-45h21m2-2h-25v49h25v-49h0Z"/><circle class="cls-6" cx="59.5" cy="121.5" r="12.5"/><path class="cls-6" d="m47,149.5c0-6.9,5.6-12.5,12.5-12.5s12.5,5.6,12.5,12.5"/><rect class="cls-4" x="48" y="151" width="23" height="47"/><path d="m70,152v45h-21v-45h21m2-2h-25v49h25v-49h0Z"/><text class="cls-3" transform="translate(226.66 23)"><tspan class="cls-19"><tspan x="0" y="0">Lea</tspan><tspan class="cls-18" x="19.25" y="0">r</tspan><tspan x="23.84" y="0">ning</tspan></tspan><tspan class="cls-19"><tspan x="7.11" y="14.4">About</tspan></tspan><tspan class="cls-13"><tspan x="-14.02" y="50.4">Space</tspan></tspan></text><circle class="cls-14" cx="244.5" cy="115.5" r="12.5"/><circle class="cls-10" cx="277.5" cy="156.5" r="14.5"/><circle class="cls-12" cx="283" cy="100" r="12"/><circle class="cls-11" cx="214" cy="141" r="6"/><circle class="cls-17" cx="235.5" cy="176.5" r="9.5"/><path class="cls-20" d="m256.94,114.31c5.51.27,9.06.71,9.06,1.19,0,.83-10.3,1.5-23,1.5s-23-.67-23-1.5c0-.57,4.85-1.06,12-1.32"/><circle class="cls-24" cx="277.5" cy="97.5" r="1.5"/><circle class="cls-24" cx="279.5" cy="106.5" r="1.5"/><line class="cls-5" x1="263.2" y1="154.09" x2="291.8" y2="154.09"/><line class="cls-5" x1="264.22" y1="162.33" x2="290.78" y2="162.33"/><polygon class="cls-22" points="461.32 153.5 479.5 153.5 487 146 487 124 479.9 118 460 118 449 132 400 132 393 137 400 143 449.18 143 461.32 153.5"/><circle class="cls-1" cx="478.5" cy="135.5" r="4.5"/><polygon class="cls-22" points="403.63 132 405.63 129 407 129 407 132 403.63 132"/><polygon class="cls-22" points="408.83 132 410.83 129 412.2 129 412.2 132 408.83 132"/><polygon class="cls-22" points="414.03 132 416.03 129 417.4 129 417.4 132 414.03 132"/><polygon class="cls-22" points="419.23 132 421.23 129 422.6 129 422.6 132 419.23 132"/><polygon class="cls-22" points="424.43 132 426.43 129 427.8 129 427.8 132 424.43 132"/><polygon class="cls-22" points="429.63 132 431.63 129 433 129 433 132 429.63 132"/><text transform="translate(402.65 43.74)"><tspan class="cls-9"><tspan class="cls-2" x="0" y="0">T</tspan><tspan x="8.33" y="0">he Key </tspan><tspan class="cls-15" x="59.23" y="0">t</tspan><tspan x="64.75" y="0">o</tspan></tspan><tspan class="cls-8"><tspan x="-8.49" y="27.6">Everything</tspan></tspan></text><line class="cls-7" x1="392.39" y1="95" x2="488.42" y2="95"/><line class="cls-7" x1="392.68" y1="172.61" x2="488.71" y2="172.61"/></g></svg>