<?xml version="1.0" encoding="UTF-8"?><svg id="Layer_2" xmlns="http://www.w3.org/2000/svg" viewBox="0 0 500 200"><defs><style>.cls-1{font-family:MonotypeCorsiva, 'Monotype Corsiva';}.cls-1,.cls-2{font-size:21px;}.cls-3,.cls-2{fill:#fff;}.cls-4{font-family:Bahnschrift, Bahnschrift;font-size:15px;font-variation-settings:'wght' 400, 'wdth' 100;}.cls-4,.cls-5{fill:#ccc;}.cls-6{letter-spacing:-.02em;}.cls-7{fill:#c7b299;}.cls-8{fill:#a67c52;}.cls-9{fill:#603813;}.cls-10{fill:#333;}.cls-2{font-family:Centaur, Centaur;}.cls-11{fill:#736357;}.cls-12{letter-spacing:-.05em;}.cls-13{letter-spacing:-.02em;}.cls-14{letter-spacing:-.02em;}.cls-15,.cls-16{fill:none;}.cls-17{fill:#174093;}.cls-18{letter-spacing:0em;}.cls-19{fill:#754c24;}.cls-20{letter-spacing:-.01em;}.cls-16{stroke:blue;stroke-linecap:round;stroke-linejoin:round;stroke-width:8px;}</style></defs><g id="Layer_1-2"><rect class="cls-15" x="0" width="500" height="200"/><rect class="cls-5" x=".5" y=".5" width="119" height="199"/><path d="m119,1v198H1V1h118M120,0H0v200h120V0h0Z"/><rect class="cls-7" x="190.5" y=".5" width="119" height="199"/><path d="m309,1v198h-118V1h118M310,0h-120v200h120V0h0Z"/><rect class="cls-10" x="380.5" y=".5" width="119" height="199"/><path d="m499,1v198h-118V1h118M500,0h-120v200h120V0h0Z"/><text class="cls-1" transform="translate(22.62 35.35)"><tspan x="0" y="0">Last June</tspan><tspan x="14.07" y="25.2">on the</tspan><tspan x="7.55" y="50.4">Danube</tspan></text><rect class="cls-9" x="19" y="125" width="25" height="20"/><path class="cls-16" d="m17,151c6.48,7.78,15.43,15.46,27,17,10.6,1.41,16.11-3.31,28-3,8.17.21,18.73,2.79,31,12"/><rect class="cls-8" x="58" y="124" width="25" height="20"/><rect class="cls-11" x="77" y="137" width="25" height="20"/><rect class="cls-19" x="40" y="111" width="25" height="20"/><text class="cls-2" transform="translate(235.3 31.55)"><tspan x="0" y="0">N</tspan><tspan class="cls-6" x="16.19" y="0">o</tspan><tspan x="25.52" y="0">,</tspan><tspan class="cls-12" x="-18.13" y="22">R</tspan><tspan x="-5.17" y="22">unning</tspan><tspan x="-25.04" y="44">is Actual</tspan><tspan class="cls-13" x="41.61" y="44">l</tspan><tspan x="46.21" y="44">y</tspan><tspan x="-24.71" y="66">Super Fun</tspan></text><circle class="cls-17" cx="264.22" cy="122.63" r="7.63"/><path class="cls-17" d="m222.8,142.39c-.63-1.01-.02-2.18.69-3.05,1.18-1.43,2.43-2.8,3.72-4.14,1.22-1.26,2.52-2.45,3.73-3.72.41-.43.85-.85,1.26-1.27s.84-.79,1.4-.97c1.31-.41,2.88-.29,4.23-.25,1.5.04,2.99.16,4.48.22l5.4.21s.1,0,.15,0c1.27.05,2.55.11,3.82.16,1.97.08,4.08.03,5.86,1.03.53.3,1,.68,1.44,1.1.89.84,1.66,1.81,2.16,2.92s.72,2.37.51,3.57c-.28,1.59-1.24,2.94-2.22,4.18-1.1,1.38-2.19,2.77-3.3,4.15-.86,1.07-1.69,2.17-2.65,3.16-.26.27-.52.55-.77.84-.13.14-.26.29-.38.43-.14.16-.35.33-.1.5,1.24.79,2.7,1.24,4.03,1.83,1.23.54,2.47,1.07,3.71,1.58.56.23,1.12.45,1.66.71s1.01.64,1.53.9c.86.64,1.58,1.49,1.95,2.49.22.59.32,1.23.37,1.86.09,1.15-.23,2.14-.8,3.14-.67,1.2-1.33,2.41-2.01,3.62-1.37,2.46-2.74,4.91-4.11,7.37-1,1.8-2.01,3.6-3.01,5.4-.14.26-.29.52-.46.76-.5.68-1.27,1.17-2.11,1.3s-1.73-.1-2.38-.65-1.03-1.41-.97-2.25c.03-.38.14-.74.25-1.1.56-1.71,1.3-3.37,1.99-5.03.56-1.35,1.1-2.72,1.65-4.08l.62-1.54.62-1.54.62-1.54c.21-.51.42-1.01.62-1.52.03-.08.06-.16.1-.24.06-.14.13-.29.02-.43-.09-.11-.24-.11-.37-.13l-.41-.07-.59-.09c-1.84-.29-3.69-.58-5.53-.9-1.79-.32-3.57-.66-5.32-1.17-.88-.25-1.76-.54-2.59-.91-2.01-.89-3.54-2.76-3.62-5.01-.04-1.35.41-2.67,1-3.88.32-.66.64-1.31.96-1.96s.65-1.3.97-1.95.66-1.3.99-1.95.67-1.29,1-1.94.67-1.29,1.01-1.93.68-1.29,1.02-1.93c.08-.15.16-.3.24-.45.07-.13.17-.27.19-.43.02-.16-.1-.29-.24-.36-.17-.08-.36-.11-.54-.15-2.54-.58-5.09-1.15-7.63-1.73-.22-.05-.45-.1-.67-.09-.52.02-.92.52-1.31.82-1.5,1.15-3.02,2.33-4.52,3.49-.77.6-1.53,1.19-2.3,1.8-.66.52-1.31,1.17-2.1,1.49-.14.06-.28.1-.42.14-.29.07-.59.07-.89.05-.52-.03-1.07-.16-1.43-.54-.1-.11-.19-.22-.26-.33Z"/><path class="cls-17" d="m236.55,156.71c.07-.19.17-.37.33-.32.06.02.1.09.13.15.1.24.2.48.3.72.08.19.19.37.32.53s.26.35.39.52c.06.08.11.15.18.22.71.79,1.71,1.37,2.67,1.8.32.14.65.27.98.4s.67.23,1,.34.68.2,1.02.29c.16.04.31.08.47.11s.31.05.47.09c.08.02.17.04.21.12.04.06.02.13,0,.2-.02.08-.04.15-.06.23-.76,2.15-1.52,4.3-2.28,6.45-.69,1.96-1.19,4.3-2.52,5.94-.47.57-1.07,1.01-1.67,1.45-4.48,3.29-8.71,6.83-12.88,10.49-.37.32-.77.62-1.23.79-1.04.4-2.29.13-3.08-.65s-1.07-2.03-.69-3.08c.44-1.2,1.59-2.02,2.47-2.89l2.01-2c1.17-1.17,2.33-2.35,3.48-3.54.99-1.02,2.21-1.98,3-3.17.47-.7.63-1.64.89-2.44l.89-2.8,1.78-5.59c.11-.34.22-.69.33-1.03.21-.68.43-1.35.66-2.03.11-.34.23-.67.35-1.01.02-.06.05-.19.1-.32Z"/><path class="cls-17" d="m259.91,144.07s.01,0,.02.01c.32.21.64.41.96.62l2.73,1.77c1.19.77,2.41,1.49,3.62,2.23.42.26.85.53,1.31.72s.96.32,1.46.29c.5-.03.99-.22,1.42-.47.73-.43,1.4-1,2.09-1.5l1.76-1.27,4.19-3.02,2.35-1.69c.67-.49,1.38-.94,2.05-1.44.49-.37.93-.86,1.01-1.49s-.14-1.35-.54-1.86c-.5-.63-1.32-1-2.12-.97-1.07.05-2.01.74-2.91,1.25-2.28,1.28-4.58,2.55-6.87,3.81l-1.16.64c-.27.15-.56.4-.89.25-.44-.2-.8-.62-1.16-.94-.87-.75-1.79-1.44-2.66-2.2-.33-.29-.68-.56-1.01-.84-.66-.54-1.31-1.08-1.97-1.62-.08-.07-.17-.14-.25-.21-.04-.04-.09-.07-.14-.11-.05-.04-.13-.1-.19-.04-.04.04-.04.13-.03.18,0,.08.02.16.04.23.02.12.04.25.06.38.03.26.05.51.05.77,0,.38-.02.76-.08,1.13-.09.59-.3,1.16-.61,1.66-.13.21-.27.41-.41.6-.52.7-1.08,1.36-1.63,2.03-.08.11-.17.22-.25.34l-.2.26c-.06.09-.24.24-.17.36.03.06.1.09.16.12Z"/><text class="cls-4" transform="translate(401.39 35.78)"><tspan x="0" y="0">Cold Nights</tspan><tspan x="32.59" y="22">in</tspan><tspan class="cls-14" x="-14.77" y="44">W</tspan><tspan x="-2.44" y="44">al</tspan><tspan class="cls-20" x="9.89" y="44">f</tspan><tspan x="14.42" y="44">o</tspan><tspan class="cls-18" x="22.6" y="44">r</tspan><tspan x="28.85" y="44">d Heights</tspan></text><rect class="cls-3" x="435.74" y="105.87" width="13.99" height="13.99" transform="translate(49.87 346.12) rotate(-45)"/><rect class="cls-3" x="402.76" y="105.82" width="13.99" height="13.99" transform="translate(40.24 322.78) rotate(-45)"/><rect class="cls-3" x="467.73" y="105.82" width="13.99" height="13.99" transform="translate(59.27 368.72) rotate(-45)"/><rect class="cls-3" x="419.75" y="131.86" width="13.99" height="13.99" transform="translate(26.81 342.43) rotate(-45)"/><rect class="cls-3" x="451.73" y="131.86" width="13.99" height="13.99" transform="translate(36.17 365.04) rotate(-45)"/><rect class="cls-3" x="435.7" y="158.2" width="14" height="14" transform="translate(12.85 361.42) rotate(-45)"/></g></svg>