<?xml version="1.0" encoding="UTF-8"?><svg id="Layer_2" xmlns="http://www.w3.org/2000/svg" viewBox="0 0 500 200"><defs><style>.cls-1{font-family:MonotypeCorsiva, 'Monotype Corsiva';font-size:19px;}.cls-1,.cls-2{fill:#e6e6e6;}.cls-3,.cls-4,.cls-5,.cls-6{fill:#fff;}.cls-4{font-size:11px;}.cls-4,.cls-6{font-family:Elephant-Regular, Elephant;}.cls-7{fill:#534741;}.cls-8{fill:#333;}.cls-9{fill:gray;}.cls-10{fill:#736357;}.cls-11{font-size:12px;}.cls-11,.cls-12{font-family:CascadiaMono-Regular, 'Cascadia Mono';font-variation-settings:'wght' 400;}.cls-5{stroke:blue;stroke-miterlimit:10;}.cls-13{fill:none;stroke-width:3px;}.cls-13,.cls-14{stroke:#000;stroke-linecap:round;stroke-linejoin:round;}.cls-6,.cls-12{font-size:6px;}.cls-15{fill:#b3b3b3;}.cls-14{fill:#ffff76;}.cls-16{fill:#29abe2;}.cls-17{fill:#fcee21;}</style></defs><g id="Layer_1-2"><rect class="cls-3" width="500" height="200"/><rect class="cls-8" x=".5" y=".5" width="119" height="199"/><path d="m119,1v198H1V1h118m1-1H0v200h120V0h0Z"/><rect class="cls-2" x="190.5" y=".5" width="119" height="199"/><path d="m309,1v198h-118V1h118m1-1h-120v200h120V0h0Z"/><rect class="cls-10" x="380.5" y=".5" width="119" height="199"/><path d="m499,1v198h-118V1h118m1-1h-120v200h120V0h0Z"/><ellipse class="cls-3" cx="440" cy="126.5" rx="55.5" ry="47"/><path d="m440,80c30.33,0,55,20.86,55,46.5s-24.67,46.5-55,46.5-55-20.86-55-46.5,24.67-46.5,55-46.5m0-1c-30.93,0-56,21.27-56,47.5s25.07,47.5,56,47.5,56-21.27,56-47.5-25.07-47.5-56-47.5h0Z"/><text class="cls-1" transform="translate(5.27 39.09)"><tspan x="0" y="0">A Strange Light</tspan><tspan x="3.8" y="22.8">in the Window</tspan><tspan x="3.81" y="45.6">at the Old Mill</tspan></text><rect class="cls-9" x="29" y="109" width="66" height="68" rx="7.89" ry="7.89"/><rect class="cls-17" x="69" y="123" width="15" height="15"/><rect class="cls-16" x="4" y="181" width="111" height="14"/><circle class="cls-7" cx="38.5" cy="169.5" r="23.5"/><text class="cls-11" transform="translate(203.91 31.52)"><tspan x="0" y="0">Help, I never</tspan><tspan x="-10.55" y="14.4">actually learned</tspan><tspan x="7.03" y="28.8">how to type</tspan><tspan x="17.58" y="43.2">properly</tspan></text><rect class="cls-15" x="203.25" y="102" width="93" height="68" rx="4.41" ry="4.41"/><rect class="cls-3" x="207.75" y="108" width="84" height="53" rx="9.3" ry="9.3"/><circle cx="291.5" cy="165.5" r="2.5"/><text class="cls-12" transform="translate(219.25 122)"><tspan x="0" y="0">Aa Bb Cc Dd Ee Ff</tspan><tspan x="0" y="7.2">Gg Hh Ii Jj Kk Ll</tspan><tspan x="0" y="14.4">Mm Nn Oo Pp Qq Rr</tspan><tspan x="0" y="21.6">Ss Tt Uu Vv Ww Xx</tspan><tspan x="21.09" y="28.8">Yy Zz</tspan></text><rect class="cls-15" x="239" y="170" width="22" height="16"/><rect class="cls-15" x="225" y="182" width="50" height="7"/><path class="cls-14" d="m456.41,115.98c0-4.69-3.81-8.5-8.5-8.5s-8.5,3.81-8.5,8.5"/><path class="cls-14" d="m431.41,113.98c0-4.69-3.81-8.5-8.5-8.5s-8.5,3.81-8.5,8.5"/><path class="cls-14" d="m431.41,109.98c0-4.69-3.81-8.5-8.5-8.5s-8.5,3.81-8.5,8.5"/><path class="cls-14" d="m474.41,119.98c0-4.69-3.81-8.5-8.5-8.5s-8.5,3.81-8.5,8.5"/><path class="cls-14" d="m423.41,119.98c0-4.69-3.81-8.5-8.5-8.5s-8.5,3.81-8.5,8.5"/><path class="cls-14" d="m444.41,109.98c0-4.69-3.81-8.5-8.5-8.5s-8.5,3.81-8.5,8.5"/><path class="cls-14" d="m468.41,111.98c0-4.69-3.81-8.5-8.5-8.5s-8.5,3.81-8.5,8.5"/><path class="cls-14" d="m456.41,106.98c0-4.69-3.81-8.5-8.5-8.5s-8.5,3.81-8.5,8.5"/><path class="cls-14" d="m470.41,123.98c0-4.69-3.81-8.5-8.5-8.5s-8.5,3.81-8.5,8.5"/><path class="cls-14" d="m456.41,112.98c0-4.69-3.81-8.5-8.5-8.5s-8.5,3.81-8.5,8.5"/><path class="cls-14" d="m459.41,122.98c0-4.69-3.81-8.5-8.5-8.5s-8.5,3.81-8.5,8.5"/><path class="cls-14" d="m422.41,116.98c0-4.69-3.81-8.5-8.5-8.5s-8.5,3.81-8.5,8.5"/><path class="cls-14" d="m465.41,117.98c0-4.69-3.81-8.5-8.5-8.5s-8.5,3.81-8.5,8.5"/><path class="cls-14" d="m414.5,125c0-4.69-3.81-8.5-8.5-8.5s-8.5,3.81-8.5,8.5"/><path class="cls-14" d="m442.41,114.98c0-4.69-3.81-8.5-8.5-8.5s-8.5,3.81-8.5,8.5"/><path class="cls-14" d="m478.41,117.98c0-4.69-3.81-8.5-8.5-8.5s-8.5,3.81-8.5,8.5"/><path class="cls-14" d="m478.41,120.98c0-4.69-3.81-8.5-8.5-8.5s-8.5,3.81-8.5,8.5"/><path class="cls-14" d="m484.41,124.98c0-4.69-3.81-8.5-8.5-8.5s-8.5,3.81-8.5,8.5"/><path class="cls-14" d="m436.41,120.98c0-4.69-3.81-8.5-8.5-8.5s-8.5,3.81-8.5,8.5"/><path class="cls-14" d="m429.41,123.98c0-4.69-3.81-8.5-8.5-8.5s-8.5,3.81-8.5,8.5"/><path class="cls-14" d="m447.41,119.98c0-4.69-3.81-8.5-8.5-8.5s-8.5,3.81-8.5,8.5"/><path class="cls-14" d="m445.41,123.98c0-4.69-3.81-8.5-8.5-8.5s-8.5,3.81-8.5,8.5"/><path class="cls-14" d="m461.41,123.98c0-4.69-3.81-8.5-8.5-8.5s-8.5,3.81-8.5,8.5"/><line class="cls-5" x1="395.13" y1="134.5" x2="484.87" y2="134.5"/><line class="cls-5" x1="402.97" y1="147.49" x2="477.03" y2="147.49"/><path class="cls-13" d="m420.72,159.09c-16.06-5.99-27.22-19.22-27.22-34.59"/><path class="cls-13" d="m486.5,124.5c0,15.37-11.16,28.6-27.22,34.59"/><line class="cls-13" x1="393.5" y1="124.5" x2="486.5" y2="124.5"/><line class="cls-13" x1="420.73" y1="159.08" x2="459.28" y2="159.08"/><text class="cls-4" transform="translate(428.32 21.87)"><tspan x="0" y="0">The</tspan><tspan x="-30.73" y="13.2">Mac ‘N’ Cheese</tspan><tspan x="-13.26" y="26.4">Murders</tspan></text><text class="cls-6" transform="translate(422.99 68.52)"><tspan x="0" y="0">Volume 15</tspan></text></g></svg>