<?xml version="1.0" encoding="UTF-8"?><svg id="Layer_2" xmlns="http://www.w3.org/2000/svg" viewBox="0 0 188 188"><defs><style>.cls-1{fill:#fff;}.cls-1,.cls-2{stroke:#000;stroke-linecap:round;stroke-linejoin:round;stroke-width:8px;}.cls-2{fill:none;}</style></defs><g id="Layer_2-2"><circle class="cls-1" cx="94" cy="94" r="90"/><path class="cls-2" d="m147.81,54.87h4.77c3.95,0,7.16,3.2,7.16,7.16v65.2c0,3.95-3.2,7.16-7.16,7.16H36.9c-3.95,0-7.16-3.2-7.16-7.16V62.03c0-3.95,3.2-7.16,7.16-7.16h3.38"/><line class="cls-2" x1="41.86" y1="49.7" x2="41.86" y2="126.03"/><line class="cls-2" x1="93.94" y1="49.7" x2="93.94" y2="126.03"/><line class="cls-2" x1="146.02" y1="49.7" x2="146.02" y2="126.03"/><path class="cls-2" d="m41.79,49.72c8.13-2.93,16.9-4.53,26.04-4.53s17.91,1.6,26.04,4.53"/><path class="cls-2" d="m93.82,49.63c8.13-2.93,16.9-4.53,26.04-4.53s17.91,1.6,26.04,4.53"/><path class="cls-2" d="m41.74,126.08c8.13-2.93,16.9-4.53,26.04-4.53s17.91,1.6,26.04,4.53"/><path class="cls-2" d="m93.82,126.08c8.13-2.93,16.9-4.53,26.04-4.53s17.91,1.6,26.04,4.53"/></g></svg>