<?xml version="1.0" standalone="no"?>
<!DOCTYPE svg PUBLIC "-//W3C//DTD SVG 20010904//EN"
 "http://www.w3.org/TR/2001/REC-SVG-20010904/DTD/svg10.dtd">
<svg version="1.0" xmlns="http://www.w3.org/2000/svg"
 width="700.000000pt" height="700.000000pt" viewBox="0 0 700.000000 700.000000"
 preserveAspectRatio="xMidYMid meet">
<metadata>
Created by potrace 1.14, written by Peter Selinger 2001-2017
</metadata>
<g transform="translate(0.000000,700.000000) scale(0.100000,-0.100000)"
fill="#000000" stroke="none">
<path d="M3278 6995 c-1 -1 -42 -5 -89 -9 -47 -4 -95 -8 -105 -10 -10 -2 -41
-7 -69 -10 -414 -54 -867 -208 -1245 -424 -86 -49 -301 -187 -339 -218 -9 -7
-52 -41 -96 -75 -340 -264 -650 -624 -875 -1014 -47 -81 -170 -327 -170 -339
0 -3 -11 -29 -24 -58 -43 -96 -112 -298 -142 -413 -4 -16 -8 -34 -10 -40 -5
-16 -25 -98 -30 -120 -39 -194 -47 -242 -60 -350 -26 -230 -26 -667 1 -826 2
-13 6 -46 9 -74 9 -78 22 -152 51 -285 21 -96 91 -339 114 -395 5 -11 25 -65
46 -120 49 -130 168 -373 244 -500 391 -648 952 -1139 1640 -1435 269 -115
598 -207 880 -246 25 -3 57 -8 71 -10 162 -25 683 -25 842 1 13 2 46 7 73 10
71 10 87 13 115 18 14 3 43 8 65 12 108 20 300 70 440 117 192 63 578 239 652
297 14 12 32 21 39 21 8 0 14 5 14 10 0 6 5 10 10 10 15 0 220 141 330 227
152 118 324 280 450 422 36 41 70 79 76 85 6 6 48 61 94 121 150 197 277 405
383 628 26 53 47 99 47 102 0 2 11 28 24 57 57 127 151 421 182 573 17 81 54
301 59 350 4 33 9 71 11 85 9 47 11 525 4 605 -15 159 -21 210 -25 225 -2 8
-7 35 -10 60 -17 129 -80 384 -136 552 -180 534 -477 1004 -889 1404 -165 160
-231 213 -510 411 -110 79 -423 244 -600 316 -215 88 -570 187 -760 212 -19 3
-46 7 -60 10 -13 2 -52 7 -86 11 -33 3 -74 8 -90 10 -32 5 -540 14 -546 9z"/>
</g>
</svg>
