<?xml version="1.0" encoding="UTF-8"?><svg id="Layer_2" xmlns="http://www.w3.org/2000/svg" viewBox="0 0 142.76 133.42"><defs><style>.cls-1{fill:#824e4e;font-family:CalistoMT, 'Calisto MT';font-size:27px;letter-spacing:-.02em;}.cls-2{fill:none;stroke:#824e4e;stroke-linecap:round;stroke-linejoin:round;stroke-width:8px;}</style></defs><g id="Layer_2-2"><path class="cls-2" d="m125.2,13.77h4.77c3.95,0,7.16,3.2,7.16,7.16v65.2c0,3.95-3.2,7.16-7.16,7.16H14.29c-3.95,0-7.16-3.2-7.16-7.16V20.93c0-3.95,3.2-7.16,7.16-7.16h3.38"/><line class="cls-2" x1="19.26" y1="8.61" x2="19.26" y2="84.94"/><line class="cls-2" x1="71.34" y1="8.61" x2="71.34" y2="84.94"/><line class="cls-2" x1="123.42" y1="8.61" x2="123.42" y2="84.94"/><path class="cls-2" d="m19.18,8.62c8.13-2.93,16.9-4.53,26.04-4.53s17.91,1.6,26.04,4.53"/><path class="cls-2" d="m71.21,8.53c8.13-2.93,16.9-4.53,26.04-4.53s17.91,1.6,26.04,4.53"/><path class="cls-2" d="m19.13,84.98c8.13-2.93,16.9-4.53,26.04-4.53s17.91,1.6,26.04,4.53"/><path class="cls-2" d="m71.21,84.98c8.13-2.93,16.9-4.53,26.04-4.53s17.91,1.6,26.04,4.53"/><text class="cls-1" transform="translate(0 127.59)"><tspan x="0" y="0">Books 4 Less</tspan></text></g></svg>